<svg width="48" height="50" viewBox="0 0 48 50" fill="none" xmlns="http://www.w3.org/2000/svg">
<path d="M18.8154 43.5424C19.0146 40.8325 16.2648 38.4217 12.6736 38.1578C9.08245 37.8938 6.00976 39.8767 5.81059 42.5866C5.61141 45.2965 8.36117 47.7073 11.9523 47.9712C15.5435 48.2352 18.6162 46.2523 18.8154 43.5424Z" stroke="#3A3734" stroke-width="2" stroke-miterlimit="10" stroke-linecap="round" stroke-linejoin="round"/>
<path d="M6.19006 42.33C6.19006 42.33 9.97007 44.4 11.9901 43.38C14.0201 42.37 15.4501 42.8 18.6901 44.27" stroke="#3A3734" stroke-width="2" stroke-miterlimit="10" stroke-linecap="round" stroke-linejoin="round"/>
<path d="M11.9901 38.02C11.2201 35.73 12.7401 33 15.5801 31.38C18.7101 29.59 22.3301 30.06 23.6801 32.42C25.0301 34.78 23.5901 38.14 20.4601 39.93C19.6801 40.38 18.8701 40.68 18.0701 40.85" stroke="#3A3734" stroke-width="2" stroke-miterlimit="10" stroke-linecap="round" stroke-linejoin="round"/>
<path d="M23.5201 32.83C23.5201 32.83 19.2301 33.23 18.1201 35.2C17.0101 37.17 15.7201 37.54 12.2101 38.14" stroke="#3A3734" stroke-width="2" stroke-miterlimit="10" stroke-linecap="round" stroke-linejoin="round"/>
<path d="M11.1404 35.0351C14.017 33.3905 15.3424 30.2967 14.1007 28.1248C12.8591 25.953 9.52053 25.5256 6.6439 27.1701C3.76727 28.8147 2.44187 31.9086 3.68354 34.0804C4.92521 36.2523 8.26375 36.6797 11.1404 35.0351Z" stroke="#3A3734" stroke-width="2" stroke-miterlimit="10" stroke-linecap="round" stroke-linejoin="round"/>
<path d="M13.96 28.51C13.96 28.51 10.01 28.87 8.99004 30.69C7.96004 32.51 6.64003 32.92 3.41003 33.46" stroke="#3A3734" stroke-width="2" stroke-miterlimit="10" stroke-linecap="round" stroke-linejoin="round"/>
<path d="M8.77025 21.8612C12.0651 21.5069 14.5192 19.2032 14.2518 16.7156C13.9843 14.228 11.0966 12.4986 7.80174 12.8528C4.50692 13.207 2.05275 15.5108 2.32019 17.9984C2.58764 20.486 5.47543 22.2154 8.77025 21.8612Z" stroke="#3A3734" stroke-width="2" stroke-miterlimit="10" stroke-linecap="round" stroke-linejoin="round"/>
<path d="M13.9599 17.01C13.9599 17.01 10.1999 15.76 8.52994 17.02C6.85994 18.27 5.48994 18.12 2.30994 17.33" stroke="#3A3734" stroke-width="2" stroke-miterlimit="10" stroke-linecap="round" stroke-linejoin="round"/>
<path d="M42.0459 43.5759C44.0464 40.9342 44.0512 37.5683 42.0568 36.0579C40.0623 34.5476 36.8237 35.4647 34.8232 38.1064C32.8228 40.7481 32.8179 44.114 34.8124 45.6243C36.8068 47.1347 40.0454 46.2176 42.0459 43.5759Z" stroke="#3A3734" stroke-width="2" stroke-miterlimit="10" stroke-linecap="round" stroke-linejoin="round"/>
<path d="M42.0799 36.47C42.0799 36.47 38.5899 38.36 38.3599 40.43C38.1299 42.5 37.0699 43.4 34.3199 45.17" stroke="#3A3734" stroke-width="2" stroke-miterlimit="10" stroke-linecap="round" stroke-linejoin="round"/>
<path d="M6.80005 35.99L10.29 38.32" stroke="#3A3734" stroke-width="2" stroke-miterlimit="10" stroke-linecap="round" stroke-linejoin="round"/>
<path d="M18.7601 43.97L23.2901 47L38.7201 29.24C42.3901 23.75 41.1801 17.69 35.6901 14.02L35.1401 13.65C29.6501 9.98002 22.1601 11.48 18.5001 16.97L12.3201 26.22" stroke="#3A3734" stroke-width="2" stroke-miterlimit="10" stroke-linecap="round" stroke-linejoin="round"/>
<path d="M6.80005 35.99L10.29 38.32" stroke="#3A3734" stroke-width="2" stroke-miterlimit="10" stroke-linecap="round" stroke-linejoin="round"/>
<path d="M19.2001 44.27L22.6201 46.55L32.5901 31.62C35.5401 27.2 34.3401 21.18 29.9201 18.23L29.4701 17.93C25.0501 14.98 19.0301 16.18 16.0801 20.6L12.3201 26.23" stroke="#3A3734" stroke-width="2" stroke-miterlimit="10" stroke-linecap="round" stroke-linejoin="round"/>
<path d="M37.7 15.46C37.7 15.46 45.2 9.06001 46.05 6.43001C46.9 3.80001 44.82 2.42001 44.82 2.42001C44.82 2.42001 42.89 0.850008 40.63 2.44001C38.37 4.03001 34.5 13.1 34.5 13.1" stroke="#3A3734" stroke-width="2" stroke-miterlimit="10" stroke-linecap="round" stroke-linejoin="round"/>
</svg>
